# xmcd
#
# Track frame offsets: 
#        150
#        11772
#        27395
#        47495
#        58867
#        73855
#        92467
#        109192
#        125360
#        139747
#
# Disc length: 2152 seconds
#
# Revision: 2
# Processed by: cddbd v1.5.2PL0 Copyright (c) Steve Scherf et al.
# Submitted via: ExactAudioCopy v0.99pb4
#
DISCID=8808660a
DTITLE=Feel - Feel
DYEAR=2002
DGENRE=Rock
TTITLE0=Won't Stand In Your Way
TTITLE1=Got Your Name on It
TTITLE2=Under the Radar
TTITLE3=Until They Close the World
TTITLE4=Come on Down
TTITLE5=Girl in a Raincoat
TTITLE6=Please Disregard
TTITLE7=Drown Me
TTITLE8=I Am the Summertime
TTITLE9=Come Back
EXTD=
EXTT0=
EXTT1=
EXTT2=
EXTT3=
EXTT4=
EXTT5=
EXTT6=
EXTT7=
EXTT8=
EXTT9=
PLAYORDER=
